<?xml version="1.0"?>
<svg xmlns:rdf="http://www.w3.org/1999/02/22-rdf-syntax-ns#" xmlns="http://www.w3.org/2000/svg" xmlns:cc="http://creativecommons.org/ns#" xmlns:dc="http://purl.org/dc/elements/1.1/" xmlns:svg="http://www.w3.org/2000/svg" id="svg3977" viewBox="0 0 128 128" version="1.0">
  <g id="layer1" stroke="#000">
    <path id="path4692" stroke-linejoin="round" d="m96.625 8.6562c-29.941 7.4828-55.361 21.233-70.313 49.469l45.563 16.5c2.951-22.555 5.98-45.109 24.75-65.969zm4.785 2.1558l-3.472 10.438c-0.001 0 22.332 0.871 21.472 0.438-0.87-0.434-18-10.876-18-10.876zm-2.629 10.876c-1.937 1.957-3.859 4.051-5.719 6.281-8.549 10.249-15.617 23.462-15.031 40.437 0.101 2.905 0.421 5.902 1 9.032l34.939 13.25c-13.42-19.581-14.162-44.349-15.189-69zm-78.406 42.406c-1.787 10.977 0.557 19.109 4.937 25.406-1.253 0.251-2.441 0.517-3.562 0.844-0.257 0.074-0.5 0.172-0.75 0.25-0.296 0.092-0.589 0.185-0.875 0.281-0.281 0.095-0.573 0.184-0.844 0.281-0.09 0.033-0.192 0.061-0.281 0.094-0.478 0.177-0.961 0.378-1.406 0.562-0.06 0.025-0.129 0.038-0.188 0.063-0.512 0.215-1.002 0.436-1.468 0.656-0.42 0.198-0.817 0.406-1.188 0.625-0.012 0.007-0.019 0.024-0.031 0.032-0.357 0.212-0.687 0.425-1 0.656-0.03 0.021-0.065 0.04-0.094 0.062-0.29 0.218-0.559 0.456-0.813 0.688-0.037 0.034-0.088 0.059-0.124 0.094-0.236 0.222-0.452 0.454-0.657 0.687-0.228 0.26-0.433 0.541-0.625 0.813-0.013 0.019-0.018 0.043-0.031 0.062-0.045 0.065-0.113 0.122-0.156 0.188-0.139 0.212-0.256 0.438-0.375 0.656-0.147 0.27-0.29 0.535-0.406 0.812-0.026 0.061-0.039 0.126-0.063 0.188-0.097 0.243-0.174 0.502-0.25 0.75-0.01 0.032-0.022 0.061-0.031 0.094-0.058 0.195-0.1112 0.396-0.1565 0.593-0.0565 0.249-0.1182 0.499-0.1563 0.749-0.0015 0.01 0.0016 0.02 0 0.03-0.0244 0.17-0.0456 0.34-0.0624 0.5-0.0927 0.9-0.0685 1.8 0.0312 2.69 0.0181 0.16 0.0391 0.31 0.0625 0.47 0.0306 0.21 0.0544 0.42 0.0937 0.62 0.01 0.06 0.0209 0.11 0.0313 0.16 0.0485 0.24 0.0975 0.48 0.1565 0.72 0.018 0.07 0.043 0.14 0.062 0.22 0.067 0.25 0.142 0.5 0.219 0.75 0.003 0.01-0.003 0.02 0 0.03 0.078 0.25 0.162 0.48 0.25 0.72 5.474 14.99 16.514 14.37 26.344 14.4 27.76 0.1 43.279-0.63 64.531-0.31 10.83 0.17 10.87-2.05 15.69-3.5-10.17-0.43-15.72-1.21-24.252-3.97l6.968 1.22c7.714-1.45 12.874-8.91 12.874-19.874-17.71-2.692-29.154-8.188-39.53-13.812-14.852-8.051-27.489-16.372-52.875-17.25z" stroke-linecap="round" stroke-width="10" fill="none"/>
    <path id="path4673" stroke-linejoin="round" d="m72.754 82.649l29.536-76.334" stroke-linecap="round" stroke-width="2" fill="none"/>
    <path id="path4677" stroke-linejoin="round" d="m98.792 21.676c-12.368 12.494-24.445 30.373-19.746 55.766 9.86-3.621 22.664 6.016 34.934 13.236-13.42-19.581-14.162-44.35-15.188-69.002z" fill-rule="evenodd" stroke-linecap="round" stroke-width="2" fill="#0ff"/>
    <path id="path4587" stroke-linejoin="round" d="m20.383 64.091c43.121 1.492 49.333 24.524 92.397 31.069 0 10.96-5.17 18.42-12.883 19.87l-54.321-9.54c-13.733-7.21-29.051-17.708-25.193-41.399z" fill-rule="evenodd" stroke-width="2" fill="#ff0"/>
    <path id="path4614" stroke-linejoin="round" d="m117.17 117.77c-14.15-0.6-19.238-1.8-36.106-8.22-10.713-4.08-14.309-11.739-27.527-17.026-16.725-6.69-30.144-3.515-37.589 0-7.0622 3.334-7.0924 9.846-5.328 14.676 5.474 15 16.513 14.35 26.342 14.38 27.761 0.1 43.273-0.61 64.528-0.29 10.83 0.17 10.87-2.08 15.68-3.52z" fill-rule="evenodd" stroke-width="2" fill="#00f"/>
    <path id="path4616" stroke-width="2" fill-rule="evenodd" fill="#fff" d="m33.71 88.622c-7.494 0.067-13.572 1.935-17.76 3.912-6.7141 3.17-7.0653 9.196-5.568 13.936 1.912 4.45 7.625 4.03 9.794-3 3.22 5.71 10.479 6.93 15.975 0.9 5.264 6.08 13.619 6.01 15.955-2.14 7.48 7.47 10.837 4.1 12.877 1.23 0.403-1.58 1.245-3.01-1.692-5.7-2.685-1.853-5.8-3.64-9.765-5.226-7.317-2.927-13.988-3.963-19.816-3.912z"/>
    <path id="path4675" stroke-linejoin="round" d="m96.622 8.6572c-29.941 7.4828-55.352 21.237-70.303 49.473 19.206-1.248 33.95 7.942 45.567 16.491 2.95-22.555 5.966-45.104 24.736-65.964z" fill-rule="evenodd" stroke-width="2" fill="#0ff"/>
    <path id="path4679" stroke-linejoin="round" d="m99.586 21.955s22.354 0.868 21.484 0.434-18.01-10.849-18.01-10.849l-3.474 10.415z" fill-rule="evenodd" stroke-width="2" fill="#f00"/>
  </g>
  <metadata>
    <rdf:RDF>
      <cc:Work>
        <dc:format>image/svg+xml</dc:format>
        <dc:type rdf:resource="http://purl.org/dc/dcmitype/StillImage"/>
        <cc:license rdf:resource="http://creativecommons.org/licenses/publicdomain/"/>
        <dc:publisher>
          <cc:Agent rdf:about="http://openclipart.org/">
            <dc:title>Openclipart</dc:title>
          </cc:Agent>
        </dc:publisher>
        <dc:title>Sailboat icon</dc:title>
        <dc:date>2009-03-18T14:18:36</dc:date>
        <dc:description>boat, boat, clip art, clipart, contour, contour, icon, icon, image, media, png, public domain, sailboat, sailboat, sailing, sailing, svg, toy, toy, water, water, </dc:description>
        <dc:source>http://openclipart.org/detail/22543/sailboat-icon-by-pitr</dc:source>
        <dc:creator>
          <cc:Agent>
            <dc:title>pitr</dc:title>
          </cc:Agent>
        </dc:creator>
        <dc:subject>
          <rdf:Bag>
            <rdf:li>boat</rdf:li>
            <rdf:li>clip art</rdf:li>
            <rdf:li>clipart</rdf:li>
            <rdf:li>contour</rdf:li>
            <rdf:li>icon</rdf:li>
            <rdf:li>image</rdf:li>
            <rdf:li>media</rdf:li>
            <rdf:li>png</rdf:li>
            <rdf:li>public domain</rdf:li>
            <rdf:li>sailboat</rdf:li>
            <rdf:li>sailing</rdf:li>
            <rdf:li>svg</rdf:li>
            <rdf:li>toy</rdf:li>
            <rdf:li>water</rdf:li>
          </rdf:Bag>
        </dc:subject>
      </cc:Work>
      <cc:License rdf:about="http://creativecommons.org/licenses/publicdomain/">
        <cc:permits rdf:resource="http://creativecommons.org/ns#Reproduction"/>
        <cc:permits rdf:resource="http://creativecommons.org/ns#Distribution"/>
        <cc:permits rdf:resource="http://creativecommons.org/ns#DerivativeWorks"/>
      </cc:License>
    </rdf:RDF>
  </metadata>
</svg>
